<svg width="686" height="122" viewBox="0 0 686 122" fill="none" xmlns="http://www.w3.org/2000/svg">
<path d="M29.5286 89.8757C23.7741 89.8757 18.6868 88.8749 14.2666 86.8733C9.92992 84.8718 6.51058 82.0779 4.00862 78.4918C1.50666 74.9056 0.172281 70.9025 0.00548349 66.4824H9.26273C9.67972 70.7357 11.5562 74.4886 14.8921 77.7412C18.2281 80.9103 23.1069 82.4949 29.5286 82.4949C35.4499 82.4949 40.1202 80.9937 43.5396 77.9914C47.0423 74.9056 48.7937 71.0276 48.7937 66.3573C48.7937 62.6043 47.8346 59.602 45.9164 57.3502C43.9983 55.0151 41.6214 53.3054 38.7858 52.2212C35.9503 51.0536 32.0306 49.8027 27.0266 48.4683C21.1887 46.8837 16.5601 45.3408 13.1408 43.8396C9.72142 42.3385 6.80247 40.0033 4.38391 36.8342C1.96535 33.665 0.756071 29.37 0.756071 23.9491C0.756071 19.4456 1.92365 15.4424 4.25881 11.9397C6.59397 8.35354 9.88822 5.55969 14.1415 3.55812C18.3949 1.55655 23.2737 0.555771 28.778 0.555771C36.8677 0.555771 43.3728 2.55734 48.2933 6.56047C53.2972 10.4802 56.1745 15.5675 56.925 21.8224H47.4176C46.8338 18.2363 44.8739 15.0671 41.538 12.315C38.202 9.47942 33.6985 8.06165 28.0274 8.06165C22.7733 8.06165 18.3949 9.47942 14.8921 12.315C11.3894 15.0671 9.63802 18.8618 9.63802 23.6989C9.63802 27.3684 10.5971 30.3291 12.5153 32.5808C14.4334 34.8326 16.8103 36.5423 19.6459 37.7099C22.5648 38.8774 26.4845 40.1284 31.4051 41.4628C37.0762 43.0474 41.6631 44.6319 45.1658 46.2165C48.6686 47.7177 51.6292 50.0528 54.0478 53.222C56.4663 56.3911 57.6756 60.6445 57.6756 65.982C57.6756 70.0685 56.5914 73.9466 54.4231 77.6161C52.2547 81.2856 49.0439 84.2463 44.7905 86.498C40.5372 88.7498 35.4499 89.8757 29.5286 89.8757ZM83.2288 35.7083C85.3972 31.1214 88.8165 27.3267 93.4869 24.3244C98.2406 21.2386 103.87 19.6958 110.375 19.6958C116.547 19.6958 122.093 21.1552 127.013 24.0742C132.017 26.9097 135.895 30.9963 138.647 36.3338C141.483 41.5879 142.901 47.7177 142.901 54.7232C142.901 61.7287 141.483 67.9002 138.647 73.2377C135.895 78.5752 132.017 82.7034 127.013 85.6224C122.093 88.5413 116.547 90.0008 110.375 90.0008C103.953 90.0008 98.3657 88.4996 93.612 85.4973C88.8582 82.4115 85.3972 78.5752 83.2288 73.9882V121.275H74.5971V20.6965H83.2288V35.7083ZM134.019 54.7232C134.019 49.0521 132.893 44.1732 130.641 40.0867C128.473 35.9168 125.47 32.7476 121.634 30.5793C117.798 28.4109 113.461 27.3267 108.624 27.3267C103.953 27.3267 99.6583 28.4526 95.7386 30.7044C91.9023 32.9561 88.8582 36.167 86.6065 40.3369C84.3547 44.5068 83.2288 49.344 83.2288 54.8483C83.2288 60.3526 84.3547 65.1897 86.6065 69.3596C88.8582 73.5296 91.9023 76.7404 95.7386 78.9922C99.6583 81.2439 103.953 82.3698 108.624 82.3698C113.461 82.3698 117.798 81.2856 121.634 79.1173C125.47 76.8655 128.473 73.6547 130.641 69.4847C132.893 65.2314 134.019 60.3109 134.019 54.7232ZM155.011 54.7232C155.011 47.7177 156.387 41.5879 159.139 36.3338C161.974 30.9963 165.852 26.9097 170.773 24.0742C175.777 21.1552 181.406 19.6958 187.661 19.6958C194.166 19.6958 199.754 21.1969 204.424 24.1993C209.178 27.2016 212.597 31.038 214.682 35.7083V20.6965H223.439V89H214.682V73.8632C212.514 78.5335 209.053 82.4115 204.299 85.4973C199.629 88.4996 194.041 90.0008 187.536 90.0008C181.365 90.0008 175.777 88.5413 170.773 85.6224C165.852 82.7034 161.974 78.5752 159.139 73.2377C156.387 67.9002 155.011 61.7287 155.011 54.7232ZM214.682 54.8483C214.682 49.344 213.556 44.5068 211.305 40.3369C209.053 36.167 205.967 32.9561 202.047 30.7044C198.211 28.4526 193.958 27.3267 189.287 27.3267C184.45 27.3267 180.114 28.4109 176.277 30.5793C172.441 32.7476 169.397 35.9168 167.145 40.0867C164.977 44.1732 163.893 49.0521 163.893 54.7232C163.893 60.3109 164.977 65.2314 167.145 69.4847C169.397 73.6547 172.441 76.8655 176.277 79.1173C180.114 81.2856 184.45 82.3698 189.287 82.3698C193.958 82.3698 198.211 81.2439 202.047 78.9922C205.967 76.7404 209.053 73.5296 211.305 69.3596C213.556 65.1897 214.682 60.3526 214.682 54.8483ZM239.427 54.8483C239.427 47.7594 240.845 41.5879 243.681 36.3338C246.516 30.9963 250.436 26.9097 255.44 24.0742C260.444 21.1552 266.157 19.6958 272.578 19.6958C281.001 19.6958 287.924 21.7807 293.344 25.9506C298.849 30.1206 302.393 35.7917 303.978 42.964H294.595C293.428 38.0434 290.884 34.2071 286.964 31.455C283.128 28.6194 278.333 27.2016 272.578 27.2016C267.991 27.2016 263.863 28.2441 260.194 30.3291C256.524 32.414 253.605 35.5415 251.437 39.7114C249.352 43.7979 248.309 48.8436 248.309 54.8483C248.309 60.853 249.352 65.9403 251.437 70.1102C253.605 74.2801 256.524 77.4076 260.194 79.4926C263.863 81.5775 267.991 82.62 272.578 82.62C278.333 82.62 283.128 81.2439 286.964 78.4918C290.884 75.6562 293.428 71.7365 294.595 66.7326H303.978C302.393 73.7381 298.849 79.3675 293.344 83.6208C287.84 87.8741 280.918 90.0008 272.578 90.0008C266.157 90.0008 260.444 88.583 255.44 85.7475C250.436 82.8285 246.516 78.742 243.681 73.4879C240.845 68.1503 239.427 61.9372 239.427 54.8483ZM381.949 51.3455C381.949 54.3479 381.866 56.6413 381.699 58.2259H325.029C325.28 63.3966 326.531 67.8168 328.782 71.4863C331.034 75.1558 333.995 77.9497 337.664 79.8679C341.334 81.7026 345.337 82.62 349.674 82.62C355.345 82.62 360.099 81.2439 363.935 78.4918C367.855 75.7396 370.44 72.0284 371.691 67.3581H380.948C379.28 74.0299 375.694 79.4926 370.19 83.7459C364.769 87.9158 357.93 90.0008 349.674 90.0008C343.252 90.0008 337.498 88.583 332.41 85.7475C327.323 82.8285 323.32 78.742 320.401 73.4879C317.565 68.1503 316.147 61.9372 316.147 54.8483C316.147 47.7594 317.565 41.5462 320.401 36.2087C323.236 30.8712 327.198 26.7846 332.285 23.9491C337.372 21.1135 343.169 19.6958 349.674 19.6958C356.179 19.6958 361.85 21.1135 366.687 23.9491C371.608 26.7846 375.36 30.621 377.946 35.4581C380.615 40.2118 381.949 45.5076 381.949 51.3455ZM373.067 51.0953C373.15 46.008 372.108 41.6713 369.94 38.0851C367.855 34.499 364.977 31.7886 361.308 29.9538C357.638 28.119 353.635 27.2016 349.298 27.2016C342.793 27.2016 337.247 29.2866 332.66 33.4565C328.073 37.6265 325.53 43.5061 325.029 51.0953H373.067ZM491.494 27.9522C491.494 32.3723 490.451 36.5423 488.366 40.462C486.281 44.3817 482.945 47.5926 478.358 50.0945C473.771 52.5131 467.892 53.7224 460.72 53.7224H444.957V89H430.696V2.05694H460.72C467.391 2.05694 473.021 3.22452 477.608 5.55968C482.278 7.81145 485.739 10.8972 487.991 14.8169C490.326 18.7367 491.494 23.1151 491.494 27.9522ZM460.72 42.0883C466.141 42.0883 470.185 40.879 472.854 38.4604C475.523 35.9585 476.857 32.4557 476.857 27.9522C476.857 18.4448 471.478 13.691 460.72 13.691H444.957V42.0883H460.72ZM534.994 90.1259C528.488 90.1259 522.609 88.6664 517.355 85.7475C512.101 82.7451 507.972 78.5752 504.97 73.2377C501.968 67.8168 500.467 61.5619 500.467 54.473C500.467 47.4675 502.009 41.2543 505.095 35.8334C508.181 30.4125 512.393 26.2425 517.73 23.3236C523.068 20.4046 529.031 18.9452 535.619 18.9452C542.208 18.9452 548.171 20.4046 553.508 23.3236C558.846 26.2425 563.057 30.4125 566.143 35.8334C569.229 41.2543 570.772 47.4675 570.772 54.473C570.772 61.4785 569.187 67.6917 566.018 73.1126C562.849 78.5335 558.512 82.7451 553.008 85.7475C547.587 88.6664 541.582 90.1259 534.994 90.1259ZM534.994 77.7412C538.663 77.7412 542.082 76.8655 545.252 75.1141C548.504 73.3628 551.131 70.7357 553.133 67.233C555.134 63.7302 556.135 59.4769 556.135 54.473C556.135 49.4691 555.176 45.2574 553.258 41.8381C551.34 38.3353 548.796 35.7083 545.627 33.9569C542.458 32.2055 539.038 31.3299 535.369 31.3299C531.699 31.3299 528.28 32.2055 525.111 33.9569C522.025 35.7083 519.565 38.3353 517.73 41.8381C515.895 45.2574 514.978 49.4691 514.978 54.473C514.978 61.8955 516.854 67.65 520.607 71.7365C524.444 75.7396 529.239 77.7412 534.994 77.7412ZM609.889 90.1259C604.468 90.1259 599.589 89.1668 595.253 87.2486C590.999 85.2471 587.622 82.5783 585.12 79.2424C582.618 75.823 581.283 72.0284 581.117 67.8585H595.878C596.128 70.7774 597.504 73.2377 600.006 75.2392C602.592 77.1574 605.803 78.1165 609.639 78.1165C613.642 78.1165 616.728 77.3659 618.896 75.8647C621.148 74.2801 622.274 72.2786 622.274 69.86C622.274 67.2747 621.023 65.3565 618.521 64.1055C616.102 62.8545 612.224 61.4785 606.887 59.9773C601.716 58.5595 597.504 57.1834 594.252 55.8491C590.999 54.5147 588.164 52.4714 585.745 49.7193C583.41 46.9671 582.242 43.3393 582.242 38.8357C582.242 35.1662 583.327 31.8302 585.495 28.8279C587.663 25.7422 590.749 23.3236 594.752 21.5722C598.839 19.8209 603.509 18.9452 608.763 18.9452C616.603 18.9452 622.899 20.9467 627.653 24.9499C632.49 28.8696 635.075 34.2488 635.409 41.0875H621.148C620.898 38.0017 619.647 35.5415 617.395 33.7067C615.143 31.8719 612.099 30.9546 608.263 30.9546C604.51 30.9546 601.633 31.6635 599.631 33.0812C597.63 34.499 596.629 36.3755 596.629 38.7106C596.629 40.5454 597.296 42.0883 598.63 43.3393C599.965 44.5902 601.591 45.591 603.509 46.3416C605.427 47.0088 608.263 47.8845 612.016 48.9687C617.02 50.303 621.106 51.6791 624.275 53.0969C627.528 54.4313 630.322 56.4328 632.657 59.1016C634.992 61.7704 636.201 65.3148 636.285 69.7349C636.285 73.6547 635.201 77.1574 633.032 80.2431C630.864 83.3289 627.778 85.7475 623.775 87.4988C619.855 89.2502 615.227 90.1259 609.889 90.1259ZM668.332 31.7052V69.86C668.332 72.4454 668.916 74.3218 670.084 75.4894C671.335 76.5736 673.42 77.1157 676.339 77.1157H685.095V89H673.837C667.415 89 662.494 87.4988 659.075 84.4965C655.656 81.4941 653.946 76.6153 653.946 69.86V31.7052H645.815V20.071H653.946V2.93263H668.332V20.071H685.095V31.7052H668.332Z" fill="black"/>
</svg>
